<svg id="Ebene_1" xmlns="http://www.w3.org/2000/svg" viewBox="0 0 107.8 64.3"><style>.st1{fill:#0065a1}</style><path d="M4.9 13.6v8.3c0 .7.4 1.3 1 1.6L17.7 30c.5.3 1.2.3 1.7 0 0 0 3.3-1.5 3.6-1.7.4-.3.9-.9.9-1.5v-2.9c0-.6-.4-1.2-.9-1.5l-7.2-3.9c-.6-.3-1-1-1-1.7v-2.9c.1-.8.5-1.3 1.2-1.6l3.2-1.6c.7-.4 1.5-.3 2.1.1L33 17.2c.6.3 1 1 1 1.7l-.1 13.2c0 .7-.4 1.3-1 1.6l-13.7 7c-.6.3-1.2.3-1.7 0L.9 31.4c-.6-.3-.9-.9-.9-1.6V12.9c0-1.4 1.5-2.3 2.7-1.7l1.2.7c.6.3 1 1 1 1.7z" fill="#e9004c"/><path class="st1" d="M33.7 27.2v-8.3c0-.7-.4-1.3-.9-1.6L21 10.8c-.5-.3-1.2-.3-1.7 0l-3.7 1.8c-.6.3-.8.8-.8 1.5V17c0 .7.4 1.2 1 1.5l7.2 4c.6.3.9 1 .9 1.6V27c0 .7-.5 1.3-1.1 1.7l-3.3 1.6c-.6.3-1.5.2-1.9 0L6 23.7c-.8-.4-1.2-.9-1.2-1.6V8.8c0-.7.4-1.3 1-1.6l13.7-7c.6-.3 1.2-.3 1.7 0l16.4 9.2c.6.3.9.9.9 1.6v16.9c0 1.4-1.4 2.3-2.7 1.7l-1.2-.7c-.5-.4-.9-1-.9-1.7zM45.3 18.3h8.3v-8.2h-8.3zM45.3 40.5c0 2.2.9 4.3 2.4 5.8 1.6 1.4 3.6 2.3 5.8 2.4v-25h-8.2v16.8zM99.6 8h-8.2v32.5c0 2.2.9 4.3 2.4 5.8 1.6 1.4 3.6 2.3 5.8 2.4V32h8.2v-8.2h-8.2V8zM85 40.5V32c0-4.5-3.7-8.2-8.2-8.2H60.3v40.5h8.2V48.7h8.2c4.6 0 8.3-3.7 8.3-8.2zM76.7 39c0 1.5-1.5 1.5-1.5 1.5h-6.7v-8.6h6.7c1.5 0 1.5 1.5 1.5 1.5V39z"/></svg>